<?xml version="1.0" encoding="iso-8859-1"?>
<!-- Generator: Adobe Illustrator 19.0.0, SVG Export Plug-In . SVG Version: 6.00 Build 0)  -->
<svg xmlns="http://www.w3.org/2000/svg" xmlns:xlink="http://www.w3.org/1999/xlink" version="1.1" id="Capa_1" x="0px" y="0px" viewBox="0 0 511.999 511.999" style="enable-background:new 0 0 511.999 511.999;" xml:space="preserve">
<circle style="fill:#FF6243;" cx="324.651" cy="134.049" r="93.048"/>
<path style="fill:#FF5023;" d="M280.871,88.638c0-14.775,3.449-28.743,9.578-41.15c-34.465,13.63-58.846,47.247-58.846,86.56  c0,51.39,41.659,93.049,93.049,93.049c36.615,0,68.284-21.152,83.472-51.899c-10.588,4.187-22.127,6.489-34.204,6.489  C322.531,181.687,280.871,140.027,280.871,88.638z"/>
<circle style="fill:#FFDAAA;" cx="324.651" cy="134.049" r="77.375"/>
<path style="fill:#FFB655;" d="M325.638,195.743c-34.018,0.542-62.136-26.693-62.678-60.712  c-0.542-34.018,26.693-62.136,60.711-62.678c34.018-0.542,62.136,26.693,62.678,60.711  C386.891,167.083,359.655,195.201,325.638,195.743z"/>
<g>
	<path style="fill:#FFA733;" d="M324.655,134.048l22.698-57.367c-7.325-2.909-15.323-4.461-23.682-4.328   c-8.358,0.134-16.304,1.939-23.531,5.08L324.655,134.048z"/>
	<path style="fill:#FFA733;" d="M325.638,195.743c8.358-0.134,16.304-1.939,23.531-5.08l-24.515-56.615l-22.698,57.367   C309.281,194.325,317.28,195.877,325.638,195.743z"/>
	<path style="fill:#FFA733;" d="M324.655,134.048l-57.367-22.697c-2.909,7.325-4.461,15.323-4.328,23.682   c0.134,8.358,1.939,16.304,5.08,23.531L324.655,134.048z"/>
	<path style="fill:#FFA733;" d="M386.348,133.064c-0.134-8.358-1.939-16.304-5.08-23.531l-56.615,24.515l57.367,22.697   C384.931,149.422,386.482,141.423,386.348,133.064z"/>
</g>
<path style="fill:#D1E7F8;" d="M329.301,133.535c-3.36-4.281-8.5-6.78-13.943-6.78H123.33c-5.441,0-10.581,2.5-13.941,6.78  c-3.36,4.279-4.569,9.866-3.279,15.152c0.386,1.577,38.491,159.845,38.491,345.586c0,9.79,7.936,17.726,17.726,17.726H276.36  c9.79,0,17.726-7.936,17.726-17.726c0-185.741,38.106-344.01,38.491-345.583C333.868,143.404,332.662,137.816,329.301,133.535z"/>
<path style="fill:#B9D8F4;" d="M213.879,494.274c0-185.741-38.105-344.01-38.491-345.586c-1.29-5.285-0.081-10.873,3.279-15.152  c3.36-4.28,8.499-6.78,13.941-6.78H123.33c-5.442,0-10.58,2.5-13.941,6.78c-3.36,4.279-4.569,9.866-3.279,15.152  c0.386,1.577,38.491,159.845,38.491,345.586c0,9.79,7.936,17.726,17.726,17.726h69.278  C221.815,511.999,213.879,504.063,213.879,494.274z"/>
<path style="fill:#FFFFFF;" d="M265.033,454.428c-2.244-2.282-5.311-3.566-8.511-3.566h-74.355c-3.199,0-6.265,1.284-8.51,3.565  c-2.243,2.281-3.478,5.367-3.427,8.566c0.061,3.74,0.101,7.446,0.123,11.018c0.04,6.565,5.373,11.866,11.938,11.866h74.105  c6.565,0,11.898-5.301,11.938-11.866c0.022-3.65,0.064-7.356,0.123-11.015C268.51,459.795,267.276,456.709,265.033,454.428z"/>
<path style="fill:#D1E7F8;" d="M182.167,450.861c-3.199,0-6.265,1.284-8.51,3.565c-2.243,2.281-3.478,5.367-3.427,8.566  c0.061,3.74,0.101,7.446,0.123,11.018c0.04,6.565,5.373,11.866,11.938,11.866h31.56c-0.072-11.803-0.296-23.486-0.65-35.016H182.167  z"/>
<path style="fill:#FFA733;" d="M181.989,191.42L147.351,52.507l-46.747-28.268c-6.173-3.732-8.15-11.762-4.418-17.935  c3.732-6.173,11.763-8.15,17.935-4.418l51.359,31.056c2.954,1.786,5.079,4.668,5.915,8.016L207.337,185.1  c1.745,6.999-2.597,13.783-9.513,15.833C189.042,203.536,183.629,197.991,181.989,191.42z"/>
<g>
	<path style="fill:#FF9811;" d="M181.99,191.42c1.638,6.571,7.052,12.116,15.833,9.513c6.916-2.05,11.258-8.835,9.513-15.833   l-14.548-58.344h-26.923L181.99,191.42z"/>
	<path style="fill:#FF9811;" d="M207.5,190.516c-8.788,1.649-14.787-4.489-16.309-10.586L158.806,50.054   c-2.247-9.009-9.493-13.414-9.503-13.422l-39.497-23.884c-4.357-2.634-6.612-7.41-6.255-12.163l0,0   c-2.969,0.906-5.631,2.854-7.363,5.718c-3.732,6.173-1.754,14.202,4.418,17.935l46.748,28.269l34.638,138.913   c1.638,6.571,7.052,12.116,15.833,9.513C202.912,199.425,206.597,195.35,207.5,190.516z"/>
</g>
<path style="fill:#EE8700;" d="M181.989,191.42c1.638,6.571,7.052,12.116,15.833,9.513c5.089-1.508,8.773-5.583,9.676-10.417  c-8.788,1.649-14.787-4.489-16.309-10.586l-13.259-53.175h-12.065L181.989,191.42z"/>
<path style="fill:#FFDE55;" d="M296.452,173.452c-2.348-3.126-5.892-4.943-9.638-4.943H151.875c-3.747,0-7.292,1.819-9.64,4.947  c-2.348,3.127-3.245,7.225-2.44,11.145c5.212,25.367,22.596,116.744,27.493,227.521c0.312,7.064,5.751,12.618,12.356,12.618h79.403  c6.604,0,12.042-5.554,12.356-12.616c4.906-110.586,22.284-202.113,27.493-227.53C299.698,180.674,298.8,176.577,296.452,173.452z"/>
<path style="fill:#FFD422;" d="M151.875,168.507c-3.747,0-7.292,1.819-9.64,4.947c-2.348,3.127-3.245,7.225-2.44,11.145  c5.212,25.367,22.596,116.744,27.493,227.521c0.312,7.064,5.751,12.618,12.356,12.618h32.526  c-5.66-117.67-23.93-215.811-32.399-256.231L151.875,168.507L151.875,168.507z"/>
<path style="fill:#FF9811;" d="M151.013,248.34c6.418,42.078,13.432,99.68,16.266,163.779c0.312,7.064,5.751,12.618,12.356,12.618  h79.403c6.604,0,12.042-5.554,12.356-12.616c2.84-64.027,9.862-121.664,16.282-163.781L151.013,248.34L151.013,248.34z"/>
<path style="fill:#EE8700;" d="M151.013,248.34c6.418,42.078,13.432,99.68,16.266,163.779c0.312,7.064,5.751,12.618,12.356,12.618  h32.534c-3.256-67.684-10.683-128.902-18.019-176.398L151.013,248.34L151.013,248.34z"/>
<path style="fill:#FF5023;" d="M160.215,319.378c3.03,28.364,5.605,59.685,7.066,92.742c0.312,7.064,5.751,12.618,12.356,12.618  h79.402c6.604,0,12.042-5.554,12.356-12.616c1.466-33.037,4.046-64.365,7.08-92.744L160.215,319.378L160.215,319.378z"/>
<path style="fill:#FF3501;" d="M160.215,319.378c3.03,28.364,5.605,59.685,7.066,92.742c0.312,7.064,5.751,12.618,12.356,12.618  h32.534c-1.805-37.519-4.89-73.049-8.534-105.361h-43.422V319.378z"/>
<path style="fill:#806749;" d="M242.104,203.536c-5.519,0-8.159-4.142-7.821-8.449l0,0c0.023-0.309,2.127-31.124-16.95-48.414  c-3.207-2.906-3.45-7.862-0.544-11.07c2.906-3.208,7.864-3.45,11.069-0.544c24.864,22.533,22.177,59.697,22.05,61.269  C249.578,200.428,246.147,203.536,242.104,203.536z"/>
<circle style="fill:#FF0C38;" cx="242.094" cy="211.57" r="26.819"/>
<path style="fill:#D80027;" d="M236.636,211.57c0-11.015,6.643-20.475,16.139-24.603c-3.274-1.423-6.883-2.216-10.68-2.216  c-14.811,0-26.819,12.007-26.819,26.819c0,14.811,12.007,26.819,26.819,26.819c3.796,0,7.406-0.793,10.68-2.216  C243.28,232.045,236.636,222.586,236.636,211.57z"/>
<g>
</g>
<g>
</g>
<g>
</g>
<g>
</g>
<g>
</g>
<g>
</g>
<g>
</g>
<g>
</g>
<g>
</g>
<g>
</g>
<g>
</g>
<g>
</g>
<g>
</g>
<g>
</g>
<g>
</g>
</svg>
