<?xml version="1.0" encoding="iso-8859-1"?>
<!-- Generator: Adobe Illustrator 19.0.0, SVG Export Plug-In . SVG Version: 6.00 Build 0)  -->
<svg xmlns="http://www.w3.org/2000/svg" xmlns:xlink="http://www.w3.org/1999/xlink" version="1.1" id="Capa_1" x="0px" y="0px" viewBox="0 0 512.001 512.001" style="enable-background:new 0 0 512.001 512.001;" xml:space="preserve">
<path style="fill:#B9D8F4;" d="M243.414,408.862h-80.232c0,0,24.313,6.536,24.313,39.039l0,0  c-7.114,4.986-11.769,13.241-11.769,22.588c0,15.227,12.344,27.572,27.572,27.572s27.572-12.344,27.572-27.572  c0-9.333-4.641-17.576-11.737-22.565l0,0C219.133,416.327,243.414,408.862,243.414,408.862z"/>
<path style="fill:#96C8EF;" d="M243.414,408.862h-80.232c0,0,23.733,6.402,24.287,37.932c5.199,0.575,10.479,0.88,15.829,0.88  c5.361,0,10.652-0.306,15.863-0.884C219.741,416.161,243.414,408.862,243.414,408.862z"/>
<path style="fill:#D1E7F8;" d="M249.771,512.001h-92.945c-7.666,0-13.94-6.273-13.94-13.94l0,0c0-7.666,6.273-13.94,13.94-13.94  h92.945c7.666,0,13.94,6.273,13.94,13.94l0,0C263.71,505.728,257.437,512.001,249.771,512.001z"/>
<path style="fill:#B9D8F4;" d="M175.626,498.061L175.626,498.061c0-7.666,6.273-13.94,13.94-13.94h-32.74  c-7.666,0-13.94,6.273-13.94,13.94l0,0c0,7.666,6.273,13.94,13.94,13.94h32.74C181.898,512.001,175.626,505.728,175.626,498.061z"/>
<path style="fill:#FF3F62;" d="M161.701,178.105L147.73,53.691L105.08,23.753c-5.904-4.144-7.331-12.29-3.186-18.195  c4.145-5.904,12.291-7.33,18.195-3.186l47.469,33.321c3.064,2.15,5.057,5.513,5.475,9.233l14.629,130.264  c0.806,7.168-4.347,13.694-11.522,14.437C165.795,190.698,162.451,184.779,161.701,178.105z"/>
<path style="fill:#FF0C38;" d="M186.428,182.278c-6.561,0-12.214-4.931-12.963-11.605L160.072,51.42  c-0.554-4.929-4.844-8.153-4.845-8.154l-38.385-26.944c-5.299-3.72-6.977-10.658-4.272-16.311l0,0  c-4.103,0.007-8.141,1.934-10.678,5.547c-4.144,5.904-2.718,14.05,3.186,18.195l42.651,29.938L161.7,178.106  c0.749,6.674,4.094,12.593,14.437,11.522c4.627-0.48,8.401-3.37,10.29-7.28c0.008-0.02,0.015-0.051,0.024-0.07  C186.445,182.277,186.436,182.278,186.428,182.278z"/>
<path style="fill:#4E901E;" d="M255.906,115.233c0.714,16.274-11.901,30.046-28.176,30.76s-30.046-11.901-30.76-28.176  c-0.714-16.274,8.084-117.099,24.359-117.812S255.193,98.958,255.906,115.233z"/>
<path style="fill:#47821C;" d="M255.906,115.263C255.204,99.254,238.174,2.56,222.128,0.082l-0.799-0.048l6.406,145.988  C244.008,145.307,256.62,131.536,255.906,115.263z"/>
<path style="fill:#5EAC24;" d="M265.427,128.131c-5.477,15.342-22.355,23.339-37.696,17.863  c-15.342-5.477-23.339-22.355-17.863-37.696S261.518,2.894,276.861,8.371C292.203,13.848,270.904,112.789,265.427,128.131z"/>
<path style="fill:#4E901E;" d="M265.427,128.131c5.477-15.342,26.776-114.283,11.433-119.76l-49.13,137.622  C243.073,151.47,259.95,143.473,265.427,128.131z"/>
<path style="fill:#3E3D42;" d="M334.861,92.446c-2.554-3.495-2.329-8.264,0.993-11.038l71.749-59.904  c3.323-2.774,8.263-2.329,11.037,0.994s2.329,8.264-0.993,11.038L345.898,93.44C344.432,94.663,339.657,99.008,334.861,92.446z"/>
<circle style="fill:#FF0C38;" cx="340.879" cy="87.428" r="34.659"/>
<path style="fill:#D80027;" d="M367.871,109.147c-8.528-21.596-23.538-39.947-42.615-52.656  c-11.291,5.712-19.036,17.415-19.036,30.933c0,19.139,15.516,34.656,34.656,34.656C351.789,122.079,361.519,117.031,367.871,109.147  z"/>
<path style="fill:#6DC82A;" d="M262.857,68.967c-5.77,0-10.449,4.678-10.449,10.449v71.053c0,5.771,4.679,10.449,10.449,10.449  h71.053c5.77,0,10.449-4.678,10.449-10.449C344.359,105.529,307.798,68.967,262.857,68.967z"/>
<path style="fill:#5EAC24;" d="M262.857,68.967c-5.77,0-10.449,4.678-10.449,10.449v71.053c0,5.771,4.679,10.449,10.449,10.449  h28.66V74.185C282.596,70.821,272.94,68.967,262.857,68.967z"/>
<path style="fill:#FFE477;" d="M252.408,87.424v63.046c0,5.771,4.679,10.449,10.449,10.449h63.368  C322.574,121.969,291.406,90.911,252.408,87.424z"/>
<path style="fill:#FFDA44;" d="M252.408,87.424v63.046c0,5.771,4.679,10.449,10.449,10.449h28.66v-59.262  C280.221,93.798,266.855,88.716,252.408,87.424z"/>
<path style="fill:#D1E7F8;" d="M299.998,253.689c-3.779-7.432-40.821-55.492-8.714-118.915c1.508-2.979,1.73-6.438,0.076-9.338  c-1.653-2.901-4.736-4.692-8.074-4.692H123.311c-3.338,0-6.421,1.791-8.074,4.692c-1.653,2.901-1.432,6.359,0.076,9.338  c32.107,63.422-4.935,111.482-8.714,118.915c-9.991,19.646-15.058,36.766-15.058,50.88c0,61.624,50.134,111.757,111.757,111.758  c61.624,0,111.757-50.134,111.757-111.758C315.055,290.454,309.989,273.336,299.998,253.689z"/>
<path style="fill:#B9D8F4;" d="M151.205,304.569c0-14.114,5.066-31.233,15.058-50.88c3.779-7.432,40.821-55.492,8.714-118.915  c-1.508-2.979-1.73-6.438-0.076-9.338c1.653-2.901,4.735-4.692,8.074-4.692H123.31c-3.338,0-6.421,1.791-8.074,4.692  c-1.653,2.901-1.432,6.359,0.076,9.338c32.107,63.422-4.935,111.482-8.714,118.915c-9.992,19.646-15.058,36.766-15.058,50.88  c0,61.624,50.134,111.757,111.757,111.758c10.329,0,20.332-1.415,29.833-4.05C185.945,399.192,151.205,355.864,151.205,304.569z"/>
<path style="fill:#FFE477;" d="M279.371,262.076c-0.077-0.155-31.963-52.374-16.787-103.869c0.786-2.664,0.35-5.539-1.295-7.778  c-1.645-2.239-4.257-3.561-7.035-3.561H152.341c-2.778,0-5.391,1.322-7.035,3.561c-1.646,2.239-2.08,5.113-1.295,7.778  c15.176,51.494-16.709,103.714-16.787,103.869c-8.06,15.912-12.147,29.339-12.147,39.908c0,48.644,39.576,88.221,88.22,88.221  s88.22-39.576,88.22-88.221C291.518,291.415,287.432,277.988,279.371,262.076z"/>
<g>
	<path style="fill:#FFDA44;" d="M190.081,389.211c-23.788-20.508-38.875-50.843-38.875-84.642c0-14.114,5.066-31.233,15.058-50.88   c3.535-6.952,36.168-49.453,14.095-106.822h-28.017c-2.778,0-5.391,1.322-7.035,3.561c-1.645,2.238-2.08,5.113-1.295,7.778   c15.176,51.494-16.709,103.714-16.787,103.869c-8.06,15.912-12.147,29.339-12.147,39.908   C115.078,346.137,147.684,382.814,190.081,389.211z"/>
	<path style="fill:#FFDA44;" d="M254.214,328.496c-4.099-1.391-6.193-5.948-4.731-10.022c0.929-2.591,1.64-5.284,2.117-8.003   c0.748-4.262,4.813-7.112,9.072-6.367c4.263,0.747,7.115,4.809,6.368,9.072c-0.631,3.595-1.574,7.158-2.803,10.587   C263.088,326.964,259.984,330.453,254.214,328.496z"/>
	<path style="fill:#FFDA44;" d="M203.298,366.694c-4.328,0-7.837-3.509-7.837-7.837c0-4.328,3.509-7.837,7.837-7.837   c13.17,0,25.539-5.171,34.835-14.562c3.044-3.077,8.005-3.101,11.082-0.057c3.075,3.045,3.101,8.007,0.056,11.082   C237.011,359.872,220.684,366.694,203.298,366.694z"/>
</g>
<path style="fill:#FFF5CC;" d="M254.254,146.868H152.342c-2.778,0-5.391,1.323-7.035,3.561c-1.645,2.239-2.08,5.113-1.295,7.778  c2.719,9.225,3.922,18.473,4.073,27.441h110.427c0.151-8.968,1.354-18.216,4.073-27.441c0.786-2.664,0.35-5.539-1.295-7.778  C259.645,148.189,257.033,146.868,254.254,146.868z"/>
<path style="fill:#FFEB99;" d="M152.341,146.868c-2.778,0-5.391,1.323-7.035,3.561c-1.645,2.239-2.08,5.113-1.295,7.778  c2.719,9.225,3.922,18.473,4.073,27.441h39.873c-0.117-11.859-2.252-24.882-7.6-38.781h-28.017V146.868z"/>
<g>
</g>
<g>
</g>
<g>
</g>
<g>
</g>
<g>
</g>
<g>
</g>
<g>
</g>
<g>
</g>
<g>
</g>
<g>
</g>
<g>
</g>
<g>
</g>
<g>
</g>
<g>
</g>
<g>
</g>
</svg>
